<svg id="svg" xmlns="http://www.w3.org/2000/svg" xmlns:xlink="http://www.w3.org/1999/xlink" width="400" height="158.59766277128546" viewBox="0, 0, 400,158.59766277128546"><g id="svgg"><path id="path0" d="M92.487 25.264 C 91.661 25.341,73.781 26.672,52.755 28.222 C 31.728 29.772,14.011 31.190,13.383 31.373 C 11.276 31.986,9.802 33.246,8.797 35.292 L 7.846 37.229 7.752 78.965 C 7.691 105.746,7.778 121.479,7.993 122.871 C 8.479 126.011,10.188 129.165,14.273 134.460 C 16.248 137.018,20.568 142.625,23.873 146.919 C 31.911 157.360,32.184 157.611,36.204 158.264 C 38.103 158.573,124.397 153.551,128.273 152.907 C 131.341 152.396,133.210 151.158,134.342 148.888 L 135.225 147.114 135.225 98.746 L 135.225 50.378 133.806 48.922 C 132.549 47.630,110.995 32.211,104.540 27.985 C 101.039 25.692,97.200 24.826,92.487 25.264 M100.020 33.440 C 103.712 34.939,118.044 45.695,117.318 46.422 C 116.900 46.840,40.176 51.512,36.557 51.340 C 33.068 51.175,32.095 50.630,24.875 44.809 C 18.741 39.863,18.169 39.067,20.088 38.147 C 21.236 37.597,90.405 32.393,94.825 32.524 C 97.267 32.597,98.462 32.808,100.020 33.440 M125.540 56.373 C 126.943 57.777,126.918 56.917,126.811 100.334 C 126.698 145.577,126.924 142.009,124.100 143.236 C 122.520 143.922,41.011 148.848,38.204 148.428 C 36.473 148.168,35.136 147.178,34.517 145.698 C 33.726 143.803,33.845 64.032,34.642 62.438 C 35.698 60.324,33.910 60.513,77.629 57.913 C 125.810 55.048,124.264 55.097,125.540 56.373 M302.504 64.190 C 298.048 67.232,300.468 74.294,305.762 73.698 C 312.208 72.971,311.664 63.439,305.175 63.439 C 304.095 63.439,303.261 63.674,302.504 64.190 M183.306 93.823 L 183.306 119.533 187.643 119.533 L 191.981 119.533 192.067 101.920 C 192.123 90.485,192.270 84.316,192.486 84.331 C 192.669 84.345,198.498 92.233,205.438 101.861 L 218.058 119.366 222.051 119.459 L 226.043 119.553 226.043 93.833 L 226.043 68.114 221.703 68.114 L 217.362 68.114 217.362 85.667 C 217.362 100.679,217.293 103.205,216.887 103.113 C 216.626 103.054,210.746 95.154,203.822 85.559 L 191.232 68.114 187.269 68.114 L 183.306 68.114 183.306 93.823 M103.840 70.427 C 94.200 71.036,93.289 71.248,92.326 73.111 C 91.063 75.554,91.505 75.969,95.743 76.319 L 98.497 76.547 98.497 94.534 C 98.497 104.427,98.437 112.521,98.363 112.521 C 98.273 112.521,72.977 73.914,71.976 72.250 C 71.963 72.229,67.521 72.507,62.104 72.868 C 50.046 73.672,49.009 74.040,48.519 77.693 C 48.316 79.208,48.688 79.449,51.252 79.465 C 51.987 79.469,53.151 79.566,53.840 79.680 L 55.092 79.887 55.092 105.512 L 55.092 131.137 52.671 131.755 C 48.902 132.717,46.386 136.227,49.465 136.227 C 52.701 136.227,68.446 135.140,69.349 134.855 C 70.599 134.459,72.454 132.484,72.454 131.547 C 72.454 130.846,72.543 130.880,67.613 129.732 L 64.608 129.032 64.521 109.758 C 64.474 99.060,64.564 90.484,64.724 90.484 C 64.883 90.484,70.707 99.450,77.665 110.408 C 93.151 134.795,93.509 135.228,98.236 135.224 C 100.744 135.221,102.254 134.846,105.257 133.481 L 107.509 132.457 107.594 103.890 L 107.679 75.322 109.015 75.064 C 112.924 74.309,114.022 73.379,113.793 71.017 C 113.665 69.707,114.482 69.756,103.840 70.427 M278.464 75.793 L 278.464 80.801 275.292 80.801 L 272.120 80.801 272.120 84.128 L 272.120 87.454 275.209 87.550 L 278.297 87.646 278.464 100.334 L 278.631 113.022 279.553 114.899 C 281.219 118.292,284.203 119.533,290.694 119.533 C 295.782 119.533,295.493 119.751,295.492 115.908 L 295.492 112.688 292.905 112.669 C 287.163 112.628,286.978 112.181,286.978 98.331 L 286.978 87.646 291.235 87.553 L 295.492 87.459 295.492 84.140 L 295.492 80.821 291.235 80.728 L 286.978 80.634 286.886 75.710 L 286.794 70.785 282.629 70.785 L 278.464 70.785 278.464 75.793 M246.912 80.119 C 235.936 82.496,230.058 94.141,233.366 106.950 C 236.351 118.502,249.160 123.775,260.654 118.184 C 272.864 112.244,273.168 88.293,261.111 82.142 C 257.241 80.167,250.876 79.261,246.912 80.119 M328.974 80.304 C 310.753 84.263,310.479 115.419,328.628 119.698 C 339.878 122.350,349.725 116.709,352.052 106.278 C 355.814 89.410,344.689 76.889,328.974 80.304 M375.203 80.163 C 372.306 80.846,368.911 83.481,367.955 85.790 C 367.103 87.846,366.611 87.058,366.611 83.639 L 366.611 80.467 362.437 80.467 L 358.264 80.467 358.264 100.000 L 358.264 119.533 362.604 119.533 L 366.945 119.533 366.945 107.239 C 366.945 92.924,367.017 92.444,369.552 89.825 C 373.387 85.864,380.452 86.521,382.681 91.046 C 383.469 92.647,383.473 92.719,383.567 106.093 L 383.661 119.533 387.991 119.533 L 392.321 119.533 392.321 105.526 C 392.321 90.717,392.200 89.238,390.759 86.311 C 388.246 81.207,381.720 78.628,375.203 80.163 M300.835 100.000 L 300.835 119.533 305.175 119.533 L 309.516 119.533 309.516 100.000 L 309.516 80.467 305.175 80.467 L 300.835 80.467 300.835 100.000 M254.963 87.684 C 262.957 91.023,263.359 108.225,255.533 112.067 C 247.858 115.836,241.569 110.401,241.569 100.000 C 241.569 90.058,247.529 84.578,254.963 87.684 M337.896 87.858 C 345.957 91.384,345.960 108.615,337.900 112.320 C 330.197 115.860,323.798 109.578,324.284 98.954 C 324.716 89.523,330.648 84.687,337.896 87.858 " stroke="none" fill="#000000" fill-rule="evenodd"></path></g></svg>