<svg id="svg" xmlns="http://www.w3.org/2000/svg" xmlns:xlink="http://www.w3.org/1999/xlink" width="400" height="142.23706176961602" viewBox="0, 0, 400,142.23706176961602"><g id="svgg"><path id="path0" d="M92.487 2.559 C 91.661 2.636,73.781 3.967,52.755 5.517 C 31.728 7.068,14.011 8.485,13.383 8.668 C 11.276 9.282,9.802 10.542,8.797 12.587 L 7.846 14.524 7.752 56.260 C 7.691 83.042,7.778 98.774,7.993 100.167 C 8.479 103.307,10.188 106.461,14.273 111.755 C 16.248 114.314,20.568 119.920,23.873 124.214 C 31.911 134.655,32.184 134.906,36.204 135.560 C 38.103 135.868,124.397 130.847,128.273 130.202 C 131.341 129.692,133.210 128.454,134.342 126.183 L 135.225 124.410 135.225 76.042 L 135.225 27.674 133.806 26.217 C 132.549 24.926,110.995 9.507,104.540 5.280 C 101.039 2.988,97.200 2.121,92.487 2.559 M100.020 10.736 C 103.712 12.235,118.044 22.991,117.318 23.718 C 116.900 24.135,40.176 28.808,36.557 28.636 C 33.068 28.470,32.095 27.926,24.875 22.104 C 18.741 17.159,18.169 16.362,20.088 15.443 C 21.236 14.892,90.405 9.689,94.825 9.820 C 97.267 9.893,98.462 10.103,100.020 10.736 M125.540 33.669 C 126.943 35.072,126.918 34.212,126.811 77.629 C 126.698 122.873,126.924 119.304,124.100 120.531 C 122.520 121.217,41.011 126.144,38.204 125.723 C 36.473 125.463,35.136 124.473,34.517 122.993 C 33.726 121.099,33.845 41.328,34.642 39.733 C 35.698 37.620,33.910 37.808,77.629 35.208 C 125.810 32.343,124.264 32.393,125.540 33.669 M302.504 41.486 C 298.048 44.527,300.468 51.590,305.762 50.993 C 312.208 50.266,311.664 40.735,305.175 40.735 C 304.095 40.735,303.261 40.969,302.504 41.486 M183.306 71.119 L 183.306 96.828 187.643 96.828 L 191.981 96.828 192.067 79.215 C 192.123 67.780,192.270 61.611,192.486 61.627 C 192.669 61.640,198.498 69.528,205.438 79.156 L 218.058 96.661 222.051 96.755 L 226.043 96.849 226.043 71.129 L 226.043 45.409 221.703 45.409 L 217.362 45.409 217.362 62.963 C 217.362 77.975,217.293 80.501,216.887 80.408 C 216.626 80.349,210.746 72.450,203.822 62.855 L 191.232 45.409 187.269 45.409 L 183.306 45.409 183.306 71.119 M103.840 47.723 C 94.200 48.331,93.289 48.544,92.326 50.406 C 91.063 52.849,91.505 53.264,95.743 53.615 L 98.497 53.842 98.497 71.829 C 98.497 81.722,98.437 89.816,98.363 89.816 C 98.273 89.816,72.977 51.210,71.976 49.545 C 71.963 49.524,67.521 49.803,62.104 50.164 C 50.046 50.967,49.009 51.335,48.519 54.989 C 48.316 56.504,48.688 56.745,51.252 56.760 C 51.987 56.765,53.151 56.862,53.840 56.976 L 55.092 57.183 55.092 82.807 L 55.092 108.432 52.671 109.050 C 48.902 110.012,46.386 113.523,49.465 113.523 C 52.701 113.523,68.446 112.436,69.349 112.150 C 70.599 111.755,72.454 109.779,72.454 108.843 C 72.454 108.142,72.543 108.175,67.613 107.027 L 64.608 106.327 64.521 87.053 C 64.474 76.356,64.564 67.780,64.724 67.780 C 64.883 67.780,70.707 76.746,77.665 87.704 C 93.151 112.090,93.509 112.523,98.236 112.519 C 100.744 112.517,102.254 112.142,105.257 110.777 L 107.509 109.753 107.594 81.185 L 107.679 52.618 109.015 52.360 C 112.924 51.605,114.022 50.675,113.793 48.312 C 113.665 47.003,114.482 47.051,103.840 47.723 M278.464 53.088 L 278.464 58.097 275.292 58.097 L 272.120 58.097 272.120 61.423 L 272.120 64.750 275.209 64.846 L 278.297 64.942 278.464 77.629 L 278.631 90.317 279.553 92.194 C 281.219 95.587,284.203 96.828,290.694 96.828 C 295.782 96.828,295.493 97.046,295.492 93.203 L 295.492 89.983 292.905 89.965 C 287.163 89.923,286.978 89.477,286.978 75.626 L 286.978 64.942 291.235 64.848 L 295.492 64.755 295.492 61.436 L 295.492 58.117 291.235 58.023 L 286.978 57.930 286.886 53.005 L 286.794 48.080 282.629 48.080 L 278.464 48.080 278.464 53.088 M246.912 57.415 C 235.936 59.792,230.058 71.436,233.366 84.245 C 236.351 95.797,249.160 101.071,260.654 95.479 C 272.864 89.539,273.168 65.588,261.111 59.437 C 257.241 57.463,250.876 56.556,246.912 57.415 M328.974 57.600 C 310.753 61.559,310.479 92.714,328.628 96.993 C 339.878 99.646,349.725 94.004,352.052 83.573 C 355.814 66.705,344.689 54.185,328.974 57.600 M375.203 57.458 C 372.306 58.141,368.911 60.777,367.955 63.086 C 367.103 65.142,366.611 64.354,366.611 60.935 L 366.611 57.763 362.437 57.763 L 358.264 57.763 358.264 77.295 L 358.264 96.828 362.604 96.828 L 366.945 96.828 366.945 84.535 C 366.945 70.219,367.017 69.739,369.552 67.121 C 373.387 63.159,380.452 63.816,382.681 68.342 C 383.469 69.942,383.473 70.015,383.567 83.389 L 383.661 96.828 387.991 96.828 L 392.321 96.828 392.321 82.821 C 392.321 68.013,392.200 66.533,390.759 63.606 C 388.246 58.503,381.720 55.923,375.203 57.458 M300.835 77.295 L 300.835 96.828 305.175 96.828 L 309.516 96.828 309.516 77.295 L 309.516 57.763 305.175 57.763 L 300.835 57.763 300.835 77.295 M254.963 64.979 C 262.957 68.319,263.359 85.520,255.533 89.363 C 247.858 93.131,241.569 87.697,241.569 77.295 C 241.569 67.354,247.529 61.873,254.963 64.979 M337.896 65.153 C 345.957 68.680,345.960 85.910,337.900 89.615 C 330.197 93.156,323.798 86.874,324.284 76.249 C 324.716 66.818,330.648 61.982,337.896 65.153 " stroke="none" fill="#000000" fill-rule="evenodd"></path></g></svg>