<?xml version="1.0" standalone="no"?>
<!DOCTYPE svg PUBLIC "-//W3C//DTD SVG 20010904//EN"
 "http://www.w3.org/TR/2001/REC-SVG-20010904/DTD/svg10.dtd">
<svg version="1.0" xmlns="http://www.w3.org/2000/svg"
 width="200.000000pt" height="200.000000pt" viewBox="0 0 200.000000 200.000000"
 preserveAspectRatio="xMidYMid meet">

<g transform="translate(0.000000,200.000000) scale(0.100000,-0.100000)"
fill="#000000" stroke="none">
<path d="M990 1745 c-91 -7 -268 -20 -395 -30 -126 -9 -245 -21 -263 -27 -62
-19 -62 -22 -62 -560 0 -454 2 -486 20 -525 26 -58 247 -342 276 -355 25 -12
80 -9 754 32 195 12 345 26 359 33 51 24 51 23 51 613 l0 551 -22 20 c-13 11
-99 74 -193 139 l-170 119 -95 2 c-52 1 -169 -5 -260 -12z m341 -83 c41 -19
188 -124 188 -134 1 -9 -56 -16 -184 -23 -60 -3 -253 -15 -429 -25 -271 -17
-323 -18 -346 -7 -36 18 -160 118 -160 129 0 14 15 16 250 33 124 9 297 22
385 29 223 18 255 18 296 -2z m283 -258 c14 -14 16 -72 16 -489 0 -417 -2
-475 -16 -489 -8 -9 -18 -16 -22 -16 -4 0 -223 -14 -486 -29 -279 -17 -489
-26 -501 -21 -12 5 -25 16 -29 25 -3 9 -6 225 -6 480 0 408 2 465 16 479 8 9
18 16 22 16 26 0 941 55 974 58 9 1 24 -5 32 -14z"/>
<path d="M1302 1241 c-51 -6 -72 -20 -72 -48 0 -8 14 -13 35 -13 20 0 38 -6
41 -13 2 -7 3 -100 2 -206 l-3 -194 -135 207 c-74 114 -142 218 -151 230 -16
21 -21 21 -135 13 -65 -4 -124 -13 -131 -19 -7 -6 -13 -21 -13 -34 0 -21 5
-24 35 -24 l35 0 0 -294 0 -294 -30 -7 c-29 -6 -58 -39 -42 -48 16 -11 241 9
256 22 27 22 18 38 -26 47 l-43 9 -3 220 c-1 137 1 216 7 210 5 -6 66 -100
136 -210 172 -271 166 -262 202 -282 30 -16 35 -16 87 1 l56 17 0 327 0 328
33 9 c22 7 33 17 35 33 3 21 0 22 -60 21 -35 -1 -87 -5 -116 -8z"/>
</g>
</svg>
